<svg fill="none" height="24" viewBox="0 0 27 24" width="27" xmlns="http://www.w3.org/2000/svg"><path d="m20.9519 0h-12.73186c-3.0983 0-5.63406 2.53576-5.63406 5.63406v2.41808c-1.5226.66731-2.58598 2.18556-2.58598 3.95356s1.06338 3.2863 2.58598 3.9536v2.4066c0 3.0983 2.53576 5.6341 5.63406 5.6341h12.73186c3.0983 0 5.6341-2.5358 5.6341-5.6341v-12.73184c0-3.0983-2.5358-5.63406-5.6341-5.63406z" fill="#8fa2cc"/><path d="m20.0188 15.7828c.7462-1.0662 1.1854-2.3635 1.1854-3.7627 0-3.63074-2.9433-6.57406-6.5741-6.57406-3.6307 0-6.57541 2.94332-6.57541 6.57406 0 3.6307 2.94331 6.574 6.57401 6.574 1.3561 0 2.6147-.4104 3.6609-1.1136l2.7955 1.0892z" fill="#c6ddf4"/><path d="m14.6302 2.78979c-3.8733 0-7.18684 2.38652-8.55589 5.76752h-1.4322c-1.89428 0-3.4341 1.54129-3.4341 3.43409 0 1.8929 1.54126 3.4341 3.4341 3.4341h1.40924c1.3547 3.4126 4.68405 5.8264 8.58025 5.8264 1.9847 0 3.8201-.6286 5.3255-1.6934l-1.5398-.5998c-1.1237.6142-2.4138.9643-3.7857.9643-4.364 0-7.9029-3.5374-7.9029-7.9029 0-4.36544 3.5374-7.90287 7.9029-7.90287 4.364 0 7.9029 3.53743 7.9029 7.90287 0 1.4279-.3803 2.7654-1.0419 3.9206l.587 1.5312c1.1208-1.5283 1.7837-3.4126 1.7837-5.4518-.0028-5.09732-4.1358-9.23031-9.2331-9.23031zm-9.98952 11.26811-.06745.0014c-1.1093-.0358-2.00191-.95-2.00191-2.0679 0-1.1107.88113-2.02055 1.98182-2.06647h1.08778c-.15642.67447-.24253 1.37477-.24253 2.09667 0 .7003.08037 1.3819.22818 2.0377h-.98589z" fill="#fff"/></svg>